<?xml version="1.0" encoding="utf-8"?>
<!-- Generator: Adobe Illustrator 17.1.0, SVG Export Plug-In . SVG Version: 6.00 Build 0)  -->
<!DOCTYPE svg PUBLIC "-//W3C//DTD SVG 1.1//EN" "http://www.w3.org/Graphics/SVG/1.1/DTD/svg11.dtd">
<svg version="1.1" id="diamond" xmlns="http://www.w3.org/2000/svg" xmlns:xlink="http://www.w3.org/1999/xlink" x="0px" y="0px"
	 viewBox="0 0 100 99.9956" enable-background="new 0 0 100 99.9956" xml:space="preserve">
<path id="diamond-label" fill="#324058" d="M49.9976,0C22.3877,0,0,22.3912,0,49.9991c0,27.6137,22.3877,49.9965,49.9976,49.9965
	C77.6104,99.9956,100,77.6128,100,49.9991C100,22.3912,77.6104,0,49.9976,0z"/>
<g id="diamond-diamond">
	<g>
		<path fill="#43C7D2" d="M50,74.5122L50,74.5122c-0.2832,0-0.5522-0.125-0.7339-0.3427L22.1816,41.4014
			c-0.0717-0.0649-0.1342-0.1396-0.1836-0.2251c-0.1704-0.2934-0.1879-0.6543-0.0209-0.9482l8.1079-14.2632
			c0.1679-0.2984,0.4843-0.4815,0.8261-0.4815h38.1748c0.3428,0,0.6573,0.1831,0.8282,0.48l8.1054,14.2256
			c0.0811,0.1431,0.125,0.3062,0.125,0.4712c0,0.2773-0.1191,0.5376-0.3095,0.7222L50.7339,74.1695
			C50.5522,74.3872,50.2832,74.5122,50,74.5122L50,74.5122z M23.9692,40.5752L50,72.0679l26.0439-31.5054l-7.5117-13.1762H31.4653
			L23.9692,40.5752L23.9692,40.5752z"/>
	</g>
	<g>
		<path fill="#43C7D2" d="M75.7168,40.9507H24.2881c-0.5254,0-0.9512-0.4267-0.9512-0.9516c0-0.5254,0.4258-0.9512,0.9512-0.9512
			h51.4287c0.5264,0,0.9521,0.4258,0.9521,0.9512C76.6689,40.524,76.2432,40.9507,75.7168,40.9507L75.7168,40.9507z"/>
	</g>
	<g>
		<path fill="#43C7D2" d="M48.8174,71.8326c-0.4111,0-0.7905-0.2666-0.9126-0.6788l-8.8692-29.8486
			c-0.1499-0.5034,0.1377-1.0337,0.6412-1.1831c0.5087-0.1509,1.0336,0.1372,1.184,0.6411L49.73,70.6089
			c0.1494,0.5049-0.1367,1.0352-0.6416,1.1856C48.998,71.8208,48.9067,71.8326,48.8174,71.8326L48.8174,71.8326z"/>
	</g>
	<g>
		<path fill="#43C7D2" d="M39.6294,39.5074c-0.1089,0-0.2197-0.0191-0.3267-0.0591c-0.4951-0.1807-0.7475-0.7276-0.5669-1.2207
			l4.2564-11.6216c0.1802-0.4946,0.729-0.75,1.2207-0.5669c0.4936,0.1807,0.7471,0.7275,0.5664,1.2207l-4.2559,11.6211
			C40.3823,39.2676,40.0176,39.5074,39.6294,39.5074L39.6294,39.5074z"/>
	</g>
	<g>
		<path fill="#43C7D2" d="M51.1846,71.8326c-0.0889,0-0.1807-0.0118-0.2705-0.0381c-0.5049-0.1504-0.7911-0.6807-0.6416-1.1856
			l8.872-29.8457c0.1494-0.5039,0.6758-0.7929,1.1826-0.6411c0.5049,0.1494,0.7901,0.6797,0.6407,1.1831l-8.8701,29.8486
			C51.9746,71.566,51.5957,71.8326,51.1846,71.8326L51.1846,71.8326z"/>
	</g>
	<g>
		<path fill="#43C7D2" d="M60.374,39.5074c-0.3867,0-0.7519-0.2398-0.8935-0.6265l-4.2559-11.6211
			c-0.1797-0.4932,0.0733-1.04,0.5674-1.2207c0.4902-0.1831,1.041,0.0723,1.2197,0.5669l4.2569,11.6216
			c0.1796,0.4931-0.0713,1.04-0.5674,1.2207C60.5938,39.4883,60.4824,39.5074,60.374,39.5074L60.374,39.5074z"/>
	</g>
</g>
</svg>
